<svg xmlns="http://www.w3.org/2000/svg" width="23.011" height="24.397" viewBox="0 0 23.011 24.397">
  <g id="inventory" transform="translate(-178.454 -192.379)" fill="none" stroke-miterlimit="10">
    <path d="M188.124,215a5.532,5.532,0,0,0-4.732.319.12.12,0,0,1-.18-.139c.787-1.928,3.949-1.822,4.606-1.779a.118.118,0,0,0,.129-.106l.734-7.758a.136.136,0,0,0,0-.027,5,5,0,0,0-1.649-2.5.118.118,0,0,1,.148-.182,12.65,12.65,0,0,1,1.885,1.471.123.123,0,0,0,.205-.068l.409-3.229a.122.122,0,0,1,.24,0l.412,3.259a.123.123,0,0,0,.2.077l1.518-1.133c.11-.082.256.049.174.157a6.826,6.826,0,0,0-1.113,2.145.147.147,0,0,0,0,.034l.553,8.5a.118.118,0,0,0,.077.1,6.259,6.259,0,0,0,4.278-.081.118.118,0,0,1,.15.164c-.67,1.116-2.036,1.544-3.648,1.544A15.123,15.123,0,0,1,188.124,215Zm9.846-4.819a7.108,7.108,0,0,1-3.931-1.712,6.388,6.388,0,0,1-1.687-3.78.119.119,0,0,1,.135-.124,7.122,7.122,0,0,1,3.931,1.712,6.4,6.4,0,0,1,1.688,3.78.117.117,0,0,1-.12.125Zm-16.709-.124a6.392,6.392,0,0,1,1.688-3.78,7.122,7.122,0,0,1,3.931-1.712.119.119,0,0,1,.135.124,6.388,6.388,0,0,1-1.687,3.78,7.108,7.108,0,0,1-3.931,1.712h-.015A.117.117,0,0,1,181.261,210.062Zm12.6-7.249a.111.111,0,0,1-.048-.173,5.351,5.351,0,0,1,2.71-1.843,5.718,5.718,0,0,1,3.447.413,5.424,5.424,0,0,1-2.8,1.957,4.3,4.3,0,0,1-1.032.121A6.163,6.163,0,0,1,193.865,202.813Zm-11.676.355a5.361,5.361,0,0,1-2.711-1.843.113.113,0,0,1,.048-.174,5.637,5.637,0,0,1,3.314-.354,5.351,5.351,0,0,1,2.71,1.843.111.111,0,0,1-.048.173,6.169,6.169,0,0,1-2.281.475A4.3,4.3,0,0,1,182.189,203.168Zm9.1-1.71a6.39,6.39,0,0,1,1.676-3.785,7.111,7.111,0,0,1,3.926-1.722.117.117,0,0,1,.135.123,6.389,6.389,0,0,1-1.676,3.785,7.107,7.107,0,0,1-3.926,1.723h-.015A.117.117,0,0,1,191.291,201.458Zm-3.35.123a7.111,7.111,0,0,1-3.927-1.723,6.394,6.394,0,0,1-1.676-3.785.118.118,0,0,1,.136-.123,7.113,7.113,0,0,1,3.926,1.722,6.4,6.4,0,0,1,1.676,3.785.118.118,0,0,1-.12.124Zm1.65-2.563a4.028,4.028,0,0,1,.041-5.6.125.125,0,0,1,.189,0,4.028,4.028,0,0,1-.041,5.6.125.125,0,0,1-.189,0Z" stroke="none"/>
    <path d="M 192.5114898681641 215.7760620117188 C 194.1241302490234 215.7760620117188 195.48974609375 215.3484954833984 196.1595001220703 214.2324066162109 C 196.2072601318359 214.1522827148438 196.1409454345703 214.0602874755859 196.0542449951172 214.0602874755859 C 196.0396575927734 214.0602874755859 196.0244903564453 214.0628967285156 196.0092010498047 214.068603515625 C 195.5755920410156 214.2309265136719 194.7108459472656 214.494873046875 193.6751403808594 214.494873046875 C 193.0684661865234 214.494873046875 192.4030456542969 214.4042663574219 191.7315063476563 214.1496124267578 C 191.6874084472656 214.1325073242188 191.6576995849609 214.0929107666016 191.6549987792969 214.0479125976563 L 191.1015014648438 205.5447082519531 C 191.1015014648438 205.5330047607422 191.1024017333984 205.5222015380859 191.1051025390625 205.510498046875 C 191.1428985595703 205.372802734375 191.4246063232422 204.4161071777344 192.2183990478516 203.3657989501953 C 192.2824096679688 203.2821044921875 192.2073822021484 203.18359375 192.1191253662109 203.18359375 C 192.0944366455078 203.18359375 192.0687103271484 203.1912994384766 192.0447082519531 203.2091979980469 L 190.5263977050781 204.3423004150391 C 190.5036468505859 204.3590240478516 190.4776611328125 204.3666381835938 190.4521789550781 204.3666381835938 C 190.3940124511719 204.3666381835938 190.3386077880859 204.3268737792969 190.3311004638672 204.2649078369141 L 189.9188995361328 201.0060119628906 C 189.9103546142578 200.9385070800781 189.8545532226563 200.9047546386719 189.7987518310547 200.9047546386719 C 189.7429656982422 200.9047546386719 189.6871490478516 200.9385070800781 189.6786041259766 201.0060119628906 L 189.2700042724609 204.2351989746094 C 189.2622680664063 204.2976226806641 189.2066497802734 204.3364868164063 189.1490173339844 204.3364868164063 C 189.1194000244141 204.3364868164063 189.0892486572266 204.3262176513672 189.0648040771484 204.3036041259766 C 188.7138061523438 203.9795989990234 187.8975067138672 203.2542114257813 187.1793060302734 202.8330078125 C 187.1575927734375 202.8203277587891 187.1357727050781 202.8148040771484 187.1150665283203 202.8148040771484 C 187.0181884765625 202.8148040771484 186.9464263916016 202.9361877441406 187.0317077636719 203.0148010253906 C 187.6392059326172 203.5709991455078 188.5239105224609 204.5313110351563 188.6805114746094 205.5140991210938 C 188.6814117431641 205.5231018066406 188.6823120117188 205.5321044921875 188.6814117431641 205.5411071777344 L 187.9470062255859 213.2991027832031 C 187.9427032470703 213.3593444824219 187.8898468017578 213.4056091308594 187.8269958496094 213.4056091308594 C 187.8241119384766 213.4056091308594 187.8212127685547 213.4055023193359 187.8182983398438 213.4053039550781 C 187.7024993896484 213.3976898193359 187.5088806152344 213.3881530761719 187.2640991210938 213.3881530761719 C 186.1202392578125 213.3881530761719 183.8600463867188 213.5966186523438 183.2120971679688 215.1846008300781 C 183.1790924072266 215.2667541503906 183.2474517822266 215.3428955078125 183.3256988525391 215.3428955078125 C 183.3477325439453 215.3428955078125 183.3705444335938 215.3368530273438 183.3921051025391 215.3232116699219 C 183.8076019287109 215.0603332519531 184.6671905517578 214.6463012695313 185.9520568847656 214.6463012695313 C 186.5764312744141 214.6463012695313 187.3013763427734 214.7441253662109 188.1242980957031 215.0046081542969 C 189.5801391601563 215.4648895263672 191.1355743408203 215.7760314941406 192.5112152099609 215.7760620117188 C 192.5113067626953 215.7760620117188 192.5113983154297 215.7760620117188 192.5114898681641 215.7760620117188 M 197.9854583740234 210.1868896484375 C 198.0551452636719 210.1868896484375 198.1111907958984 210.1298370361328 198.1053009033203 210.0617980957031 C 198.0549011230469 209.5353088378906 197.7813110351563 207.6156005859375 196.4178009033203 206.2817993164063 C 195.0534057617188 204.9488983154297 193.0401000976563 204.6339111328125 192.4866027832031 204.5700073242188 C 192.4819488525391 204.5695190429688 192.4773559570313 204.5692749023438 192.4727935791016 204.5692749023438 C 192.4024047851563 204.5692749023438 192.3448333740234 204.6265869140625 192.3516082763672 204.6941986083984 C 192.4020080566406 205.2216033935547 192.6746978759766 207.1413116455078 194.0391082763672 208.4742126464844 C 195.4035034179688 209.8079986572266 197.4168090820313 210.1230010986328 197.9703063964844 210.1860046386719 C 197.9754180908203 210.1865997314453 197.98046875 210.1868896484375 197.9854583740234 210.1868896484375 M 181.3807525634766 210.1868896484375 C 181.3857421875 210.1868896484375 181.3907928466797 210.1865997314453 181.3959045410156 210.1860046386719 C 181.9494018554688 210.1230010986328 183.9627075195313 209.8079986572266 185.3271026611328 208.4742126464844 C 186.6914978027344 207.1413116455078 186.9642028808594 205.2216033935547 187.0146026611328 204.6941986083984 C 187.0205230712891 204.6265869140625 186.9637145996094 204.5692749023438 186.8934020996094 204.5692749023438 C 186.8888549804688 204.5692749023438 186.8842620849609 204.5695190429688 186.8796081542969 204.5700073242188 C 186.3261108398438 204.6339111328125 184.3128051757813 204.9488983154297 182.9484100341797 206.2817993164063 C 181.5839996337891 207.6156005859375 181.3113098144531 209.5353088378906 181.2609100341797 210.0617980957031 C 181.2541809082031 210.1298370361328 181.3109588623047 210.1868896484375 181.3807525634766 210.1868896484375 M 196.145263671875 203.2884216308594 C 196.479736328125 203.2884063720703 196.8286590576172 203.2540130615234 197.1773986816406 203.1678009033203 C 198.9018096923828 202.7412109375 199.9737091064453 201.2103118896484 199.9737091064453 201.2103118896484 C 199.9737091064453 201.2103118896484 198.8784027099609 200.6763458251953 197.5600891113281 200.6763458251953 C 197.2253112792969 200.6763458251953 196.8759155273438 200.7108154296875 196.5267028808594 200.7972106933594 C 195.0885009765625 201.1527099609375 194.1039123535156 202.2768096923828 193.8168029785156 202.6404113769531 C 193.7700042724609 202.6988983154297 193.7934112548828 202.7835083007813 193.864501953125 202.8132019042969 C 194.1951599121094 202.9529724121094 195.1004333496094 203.2884521484375 196.145263671875 203.2884216308594 M 183.2209625244141 203.2884216308594 C 184.2655029296875 203.2884216308594 185.1703796386719 202.9529571533203 185.501708984375 202.8132019042969 C 185.5727996826172 202.7835083007813 185.5962066650391 202.6988983154297 185.5494079589844 202.6404113769531 C 185.2622985839844 202.2768096923828 184.2777099609375 201.1527099609375 182.8395080566406 200.7972106933594 C 182.4903564453125 200.7109527587891 182.1414489746094 200.6765747070313 181.8067779541016 200.6765747070313 C 180.7619781494141 200.6765747070313 179.8569793701172 201.0118408203125 179.5257110595703 201.1509094238281 C 179.4555053710938 201.1806030273438 179.4320983886719 201.2651977539063 179.4779968261719 201.3246002197266 C 179.7651062011719 201.6873016357422 180.7497100830078 202.8114013671875 182.1887969970703 203.1678009033203 C 182.5375518798828 203.2540130615234 182.8864288330078 203.2884063720703 183.2208251953125 203.2884216308594 C 183.2208862304688 203.2884216308594 183.2209014892578 203.2884216308594 183.2209625244141 203.2884216308594 M 191.4103393554688 201.5820007324219 C 191.4153289794922 201.5820007324219 191.4203948974609 201.5817108154297 191.4255065917969 201.5811004638672 C 191.97900390625 201.5163116455078 193.9914093017578 201.1959075927734 195.3513031005859 199.8585052490234 C 196.7112121582031 198.5211029052734 196.9785003662109 196.6014099121094 197.027099609375 196.0740051269531 C 197.0338134765625 196.0060272216797 196.9771423339844 195.9497985839844 196.9074401855469 195.9497985839844 C 196.9023895263672 195.9497985839844 196.8972625732422 195.9500885009766 196.8921051025391 195.9506988525391 C 196.3386077880859 196.0155029296875 194.3262023925781 196.3359069824219 192.96630859375 197.6724090576172 C 191.6063995361328 199.0098114013672 191.339111328125 200.9304046630859 191.2905120849609 201.4578094482422 C 191.2837829589844 201.5249938964844 191.3405609130859 201.5820007324219 191.4103393554688 201.5820007324219 M 187.9557037353516 201.5820007324219 C 188.0247650146484 201.5820007324219 188.0815887451172 201.5249938964844 188.0756988525391 201.4578094482422 C 188.0261993408203 200.9304046630859 187.7598114013672 199.0098114013672 186.39990234375 197.6724090576172 C 185.0400085449219 196.3359069824219 183.0267028808594 196.0155029296875 182.4741058349609 195.9506988525391 C 182.4689331054688 195.9500885009766 182.4638214111328 195.9497985839844 182.4587554931641 195.9497985839844 C 182.3890533447266 195.9497985839844 182.3323364257813 196.0060272216797 182.3382110595703 196.0740051269531 C 182.3877105712891 196.6014099121094 182.6540985107422 198.5211029052734 184.0140075683594 199.8585052490234 C 185.3748016357422 201.1959075927734 187.38720703125 201.5163116455078 187.9407043457031 201.5811004638672 C 187.9457550048828 201.5817108154297 187.9507598876953 201.5820007324219 187.9557037353516 201.5820007324219 M 189.6853942871094 199.0615539550781 C 189.7203369140625 199.0615539550781 189.7552947998047 199.0473785400391 189.7794036865234 199.018798828125 C 190.0691986083984 198.6768035888672 190.9206085205078 197.5599060058594 190.9305114746094 196.2279052734375 C 190.9403991699219 194.8968048095703 190.1052093505859 193.7682037353516 189.82080078125 193.422607421875 C 189.7967681884766 193.3935852050781 189.7613067626953 193.3789520263672 189.7258148193359 193.3789520263672 C 189.6908721923828 193.3789520263672 189.6559143066406 193.3931274414063 189.6318054199219 193.4217071533203 C 189.3420104980469 193.7637023925781 188.4906005859375 194.8805999755859 188.4806976318359 196.2117004394531 C 188.4708099365234 197.543701171875 189.3059997558594 198.6714019775391 189.5904083251953 199.0178985595703 C 189.6144409179688 199.0469360351563 189.64990234375 199.0615539550781 189.6853942871094 199.0615539550781 M 192.5114898681641 216.7760620117188 L 192.5112152099609 216.7760620117188 C 190.7744445800781 216.7760162353516 189.0030364990234 216.3312225341797 187.8228454589844 215.9580841064453 C 187.1691284179688 215.7511749267578 186.539794921875 215.6463012695313 185.9520568847656 215.6463012695313 C 184.9077453613281 215.6463012695313 184.2348785400391 215.9733428955078 183.9267578125 216.1682891845703 C 183.746337890625 216.2824859619141 183.5384368896484 216.3428955078125 183.3256988525391 216.3428955078125 C 182.9518280029297 216.3429412841797 182.6035461425781 216.1580505371094 182.3941650390625 215.8483276367188 C 182.1874084472656 215.54248046875 182.1463012695313 215.1549835205078 182.2841949462891 214.8117828369141 L 182.2852020263672 214.8092956542969 L 182.2862091064453 214.8068084716797 C 182.9029998779297 213.2951812744141 184.5826721191406 212.4417572021484 187.0285339355469 212.3905944824219 L 187.5645599365234 206.7283172607422 C 187.2731323242188 207.5321502685547 186.7983093261719 208.4349517822266 186.0258941650391 209.1895294189453 C 184.4404296875 210.7394409179688 182.1677856445313 211.1045989990234 181.5090179443359 211.1795959472656 C 181.4676055908203 211.1843719482422 181.4239349365234 211.1868896484375 181.3807525634766 211.1868896484375 C 181.0639038085938 211.1868896484375 180.760498046875 211.0525512695313 180.5483245849609 210.8183441162109 C 180.3379669189453 210.586181640625 180.2349853515625 210.2745513916016 180.2657775878906 209.9633636474609 C 180.326416015625 209.3297424316406 180.6496276855469 207.1305541992188 182.2493743896484 205.5667114257813 C 182.9247131347656 204.9069519042969 183.7261810302734 204.4617004394531 184.4743194580078 204.162109375 C 184.0959167480469 204.2362823486328 183.6701202392578 204.2884216308594 183.2209625244141 204.2884216308594 L 183.2208251953125 204.2884216308594 C 182.7789459228516 204.2884063720703 182.3509979248047 204.2379913330078 181.9488372802734 204.1385803222656 C 180.2438354492188 203.7163238525391 179.1045989990234 202.4640655517578 178.6939239501953 201.9452667236328 L 178.6902923583984 201.940673828125 L 178.6867065429688 201.9360504150391 C 178.4740295410156 201.6608123779297 178.4025726318359 201.3102722167969 178.4906463623047 200.9743194580078 C 178.5789947509766 200.6373443603516 178.8143157958984 200.3660125732422 179.13623046875 200.2298736572266 C 179.5342254638672 200.0628051757813 180.5860748291016 199.6765747070313 181.8067779541016 199.6765747070313 C 182.0809173583984 199.6765747070313 182.3497161865234 199.6959686279297 182.6103668212891 199.7344055175781 C 181.6209106445313 198.3070526123047 181.3923034667969 196.6971893310547 181.3425903320313 196.1674652099609 L 181.3422393798828 196.1637420654297 L 181.3419189453125 196.1600341796875 C 181.3152313232422 195.8509368896484 181.4203948974609 195.5423126220703 181.6304779052734 195.3133239746094 C 181.8424072265625 195.0823059082031 182.1443176269531 194.9497985839844 182.4587554931641 194.9497985839844 C 182.5028839111328 194.9497985839844 182.5474700927734 194.9524230957031 182.5912780761719 194.9575958251953 C 183.2494506835938 195.0347747802734 185.5219573974609 195.4074554443359 187.1008453369141 196.9591979980469 C 187.3339996337891 197.1884918212891 187.5399627685547 197.4315948486328 187.7216796875 197.6813049316406 C 187.5742950439453 197.233154296875 187.4767913818359 196.7347259521484 187.4807281494141 196.2042846679688 C 187.4928588867188 194.5736083984375 188.4555358886719 193.2630157470703 188.8688659667969 192.7752227783203 C 189.0809173583984 192.5239562988281 189.3937377929688 192.3789520263672 189.7258148193359 192.3789520263672 C 190.0619964599609 192.3789520263672 190.3773040771484 192.5268402099609 190.5908966064453 192.78466796875 C 190.9991455078125 193.2807464599609 191.9425964355469 194.6048126220703 191.9304809570313 196.2353363037109 C 191.9268493652344 196.7232818603516 191.8382110595703 197.1824951171875 191.7046661376953 197.599609375 C 191.8713226318359 197.3787231445313 192.0573272705078 197.1637878417969 192.26513671875 196.9594268798828 C 193.8448333740234 195.4069061279297 196.1170349121094 195.0346069335938 196.7758178710938 194.9574737548828 C 196.8187255859375 194.9524230957031 196.8633117675781 194.9497985839844 196.9074401855469 194.9497985839844 C 197.2244110107422 194.9497985839844 197.5278472900391 195.0840454101563 197.7399444580078 195.318115234375 C 197.9485931396484 195.5483703613281 198.0515289306641 195.8569946289063 198.0228729248047 196.165771484375 L 198.0228881835938 196.165771484375 C 197.9741058349609 196.6950988769531 197.7478485107422 198.3045043945313 196.7555236816406 199.7343444824219 C 197.0164489746094 199.6957855224609 197.2855834960938 199.6763458251953 197.5600738525391 199.6763458251953 C 199.0915679931641 199.6763458251953 200.3587188720703 200.2854919433594 200.4119262695313 200.3114318847656 L 201.4645385742188 200.8245849609375 L 200.7928771972656 201.7838745117188 C 200.7403259277344 201.8589172363281 199.482177734375 203.6277770996094 197.4175415039063 204.1385345458984 C 197.0152282714844 204.2379913330078 196.5872344970703 204.2884063720703 196.1452941894531 204.2884216308594 C 195.6962890625 204.2884368896484 195.2709808349609 204.2365112304688 194.8929443359375 204.1625061035156 C 195.6407775878906 204.4620513916016 196.4416351318359 204.9071044921875 197.1166076660156 205.5664825439453 C 198.7167053222656 207.1317138671875 199.0398254394531 209.3300323486328 199.1007537841797 209.9665069580078 L 199.1011810302734 209.9710235595703 L 199.1015777587891 209.9755554199219 C 199.1283721923828 210.28515625 199.0231170654297 210.59423828125 198.8127746582031 210.8235778808594 C 198.6009979248047 211.0544738769531 198.2994689941406 211.1868896484375 197.9854583740234 211.1868896484375 C 197.9422760009766 211.1868896484375 197.8986053466797 211.1843719482422 197.8556060791016 211.1794128417969 C 197.1984252929688 211.1045989990234 194.92578125 210.7394409179688 193.3400726318359 209.1892852783203 C 192.8759918212891 208.7359313964844 192.5193481445313 208.22900390625 192.245361328125 207.7221832275391 L 192.6133422851563 213.3752746582031 C 192.9520721435547 213.4547729492188 193.3073425292969 213.494873046875 193.6751403808594 213.494873046875 C 194.5577545166016 213.494873046875 195.2966766357422 213.2675628662109 195.6585845947266 213.132080078125 C 195.7867889404297 213.0842895507813 195.9194641113281 213.060302734375 196.0542449951172 213.060302734375 C 196.4573516845703 213.060302734375 196.8314208984375 213.2779846191406 197.0304565429688 213.6284027099609 C 197.2270965576172 213.9745941162109 197.2224884033203 214.4022521972656 197.0184173583984 214.7445220947266 C 196.4614868164063 215.6726226806641 195.2289123535156 216.7760620117188 192.5114898681641 216.7760620117188 Z M 188.6215515136719 199.3997802734375 C 188.7451019287109 199.7401580810547 188.8359527587891 200.0632934570313 188.9026641845703 200.3506164550781 C 189.0149230957031 200.2023468017578 189.1631927490234 200.0832824707031 189.3335571289063 200.0056304931641 C 189.1348114013672 199.9405364990234 188.9565582275391 199.8204803466797 188.8199768066406 199.6554260253906 C 188.7629089355469 199.5858917236328 188.6954193115234 199.5002136230469 188.6215515136719 199.3997802734375 Z M 190.1509246826172 199.9613037109375 C 190.2826080322266 200.0048370361328 190.4039154052734 200.0720825195313 190.5094604492188 200.1582794189453 C 190.5679779052734 199.9301605224609 190.6413269042969 199.6839752197266 190.7333221435547 199.4275817871094 C 190.6622467041016 199.5206604003906 190.5974273681641 199.6002655029297 190.5423278808594 199.665283203125 C 190.4344177246094 199.7931976318359 190.3003692626953 199.8935699462891 190.1509246826172 199.9613037109375 Z" stroke="none" fill="#4e4e4e"/>
  </g>
</svg>
